# xmcd CD database file
#
# Track frame offsets:
#	150
#	1806
#	2825
#	3477
#	4179
#	4803
#	8416
#	9959
#	11943
#	12958
#	13719
#	14476
#	15346
#	16142
#	16890
#	17748
#	18613
#	20105
#	20990
#	22029
#	22886
#	24017
#	25119
#	25866
#	26778
#	28551
#	29454
#	30597
#	31680
#	32300
#	33164
#	34082
#	35769
#	41669
#	42632
#	44843
#	45700
#	46656
#	48344
#	51584
#	52665
#	53318
#	54121
#	54877
#	55790
#	56822
#	57840
#	58997
#	60161
#	61537
#	62146
#	63803
#	64760
#	65773
#	72030
#	77499
#	78489
#	79184
#	79769
#	80308
#	81001
#	81941
#	82467
#	83384
#	84905
#	85796
#	87677
#	90216
#	93047
#	96997
#	99648
#	102910
#
# Disc length: 1414 seconds
#
# Revision: 0
# Processed by: cddbd v1.5.2PL0 Copyright (c) Steve Scherf et al.
# Submitted via: CDex 1.70beta1
#
DISCID=52058448
DTITLE=Steven D. Anderson (w/Ronald Cid) - Visions: A personal tribute to jazz guitarist Lenny Breau (accompanying audio cd)
DYEAR=1994
DGENRE=Jazz
TTITLE0=EX7-P11
TTITLE1=EX8a-P12
TTITLE2=EX8b-12
TTITLE3=EX8c-P12
TTITLE4=EX8d-P13
TTITLE5=EX17-Oui Blues-P20
TTITLE6=EX26a-P29
TTITLE7=EX26b-P30
TTITLE8=EX4-staff1-P37
TTITLE9=EX4-staff2-P37
TTITLE10=EX4-staff3-P37
TTITLE11=EX4-staff4-P37
TTITLE12=EX5-staff1-P39
TTITLE13=EX5-staff2-P39
TTITLE14=EX5-staff3-P39
TTITLE15=EX5-staff4-P39
TTITLE16=EX5-staff1-P49
TTITLE17=EX5-staff2-P49
TTITLE18=EX5-staff3-P49
TTITLE19=EX5-staff4-P49
TTITLE20=EX5-staff5-P50
TTITLE21=EX5-staff6-P50
TTITLE22=EX6-P50
TTITLE23=EX7-staff1-P51
TTITLE24=EX7-staff2-P51
TTITLE25=EX7-staff3-P51
TTITLE26=EX7-staff4-P51
TTITLE27=EX1-P52
TTITLE28=EX2-P53
TTITLE29=EX3-P53
TTITLE30=EX4-P54
TTITLE31=EX5-P55
TTITLE32=EX6-Ophelia-P66
TTITLE33=EX7-P83
TTITLE34=EX8-Go_Fourth-P88
TTITLE35=EX9-P86
TTITLE36=EX10-P86
TTITLE37=EX11-P87
TTITLE38=EX12-Thou_Rose-P88
TTITLE39=EX4-P92
TTITLE40=EX5-P93
TTITLE41=EX6-P93
TTITLE42=EX7-P94
TTITLE43=EX8-P94
TTITLE44=EX9-P94
TTITLE45=EX10-P95
TTITLE46=EX11-P95
TTITLE47=EX12-P96
TTITLE48=EX13-P96
TTITLE49=EX14-P97
TTITLE50=EX15-P98
TTITLE51=EX16-P99
TTITLE52=EX17-P99
TTITLE53=EX18-Skippin'-P100
TTITLE54=Theme-P108
TTITLE55=Dim_Roll1-P110
TTITLE56=Dim_Roll2-P110
TTITLE57=Dim_Roll3-P111
TTITLE58=Dim_Roll4-P111
TTITLE59=Dim_Roll5-P112
TTITLE60=Dim_Roll6-P112
TTITLE61=Dim_Roll7-P112
TTITLE62=Dim_Roll8-P113
TTITLE63=Dim_Roll9-P113
TTITLE64=Dim_Roll10-P114
TTITLE65=Dim_Roll_Extra-P114
TTITLE66=Chasing_The_Line1-P116
TTITLE67=Chasing_The_Line2-P117
TTITLE68=B's_Blues-P119
TTITLE69=Endings1-P120
TTITLE70=Endings2-P121
TTITLE71=Endings3-P122
EXTD=YEAR: 1994
EXTT0=
EXTT1=
EXTT2=
EXTT3=
EXTT4=
EXTT5=
EXTT6=
EXTT7=
EXTT8=
EXTT9=
EXTT10=
EXTT11=
EXTT12=
EXTT13=
EXTT14=
EXTT15=
EXTT16=
EXTT17=
EXTT18=
EXTT19=
EXTT20=
EXTT21=
EXTT22=
EXTT23=
EXTT24=
EXTT25=
EXTT26=
EXTT27=
EXTT28=
EXTT29=
EXTT30=
EXTT31=
EXTT32=
EXTT33=
EXTT34=
EXTT35=
EXTT36=
EXTT37=
EXTT38=
EXTT39=
EXTT40=
EXTT41=
EXTT42=
EXTT43=
EXTT44=
EXTT45=
EXTT46=
EXTT47=
EXTT48=
EXTT49=
EXTT50=
EXTT51=
EXTT52=
EXTT53=
EXTT54=
EXTT55=
EXTT56=
EXTT57=
EXTT58=
EXTT59=
EXTT60=
EXTT61=
EXTT62=
EXTT63=
EXTT64=
EXTT65=
EXTT66=
EXTT67=
EXTT68=
EXTT69=
EXTT70=
EXTT71=
PLAYORDER=
